<?xml version="1.0" encoding="UTF-8" standalone="no"?>
<!-- Created with Inkscape (http://www.inkscape.org/) -->

<svg
   xmlns:dc="http://purl.org/dc/elements/1.1/"
   xmlns:cc="http://creativecommons.org/ns#"
   xmlns:rdf="http://www.w3.org/1999/02/22-rdf-syntax-ns#"
   xmlns:svg="http://www.w3.org/2000/svg"
   xmlns="http://www.w3.org/2000/svg"
   version="1.1"
   width="99.776634"
   height="99.304161"
   id="svg3236">
  <metadata
     id="metadata3242">
    <rdf:RDF>
      <cc:Work
         rdf:about="">
        <dc:format>image/svg+xml</dc:format>
        <dc:type
           rdf:resource="http://purl.org/dc/dcmitype/StillImage" />
        <dc:title></dc:title>
      </cc:Work>
    </rdf:RDF>
  </metadata>
  <defs
     id="defs3240" />
  <path
     d="m 28.931772,98.052353 c -1.660601,-2.0009 -0.838993,-3.06802 9.206547,-11.95765 C 50.975753,74.73443 50.813232,74.5 30.100209,74.5 14.661679,74.5 12.958118,74.319125 8.9087508,72.25 0.57377062,67.991034 0.42965691,67.489053 0.08671001,41.520832 -0.25435219,15.69533 0.13394851,13.704108 6.4515185,8.881822 L 10.226929,6 28.498787,5.671393 46.770645,5.342787 47.079482,2.671393 C 47.322314,0.57093 47.922619,0 49.888319,0 c 1.9657,0 2.566005,0.57093 2.808837,2.671393 L 53.005993,5.342787 71.277851,5.671393 89.549708,6 93.325119,8.881822 c 6.31757,4.822286 6.705871,6.813508 6.364808,32.63901 -0.342947,25.968221 -0.48706,26.470202 -8.82204,30.729168 -4.049367,2.069125 -5.752928,2.25 -21.191458,2.25 -20.713023,0 -20.875544,0.23443 -8.03811,11.594703 10.04554,8.88963 10.867148,9.95675 9.206547,11.95765 -1.906824,2.297587 -3.030787,1.787467 -10.456547,-4.74577 -6.14467,-5.40612 -7.037883,-5.90163 -7.310034,-4.05524 -0.466022,3.1617 -2.825471,4.79605 -4.689966,3.24866 -0.825,-0.68469 -1.5,-2.08979 -1.5,-3.12245 0,-1.03265 -0.263298,-1.87755 -0.585108,-1.87755 -0.321809,0 -3.623091,2.7 -7.336182,6 -7.189,6.389207 -8.149278,6.824817 -10.035257,4.55235 z m 62.039718,-33.31813 2.916829,-3.265776 0,-21.468447 0,-21.468447 L 90.970348,15.265777 88.052377,12 l -38.164058,0 -38.164058,0 -2.9179716,3.265777 -2.917971,3.265776 0,21.407498 0,21.407498 2.5359194,3.013769 c 1.3947557,1.657573 3.7572562,3.212434 5.2500002,3.455246 1.492745,0.242813 18.839008,0.383643 38.547252,0.312957 L 88.054662,68 90.97149,64.734223 z M 19.273253,57.060739 c -0.303763,-0.791594 -0.17714,-2.088347 0.281385,-2.881674 1.629543,-2.819391 19.530796,-22.817475 20.892915,-23.340169 0.79391,-0.304652 4.919548,2.496167 9.663087,6.56009 4.552723,3.900446 8.542768,7.093812 8.866766,7.096367 0.323998,0.0026 4.373998,-4.497357 9,-9.999807 6.110606,-7.268329 8.957894,-9.934864 10.410913,-9.75 C 82.720837,25.29676 81.029312,28.881509 70.836344,40.75 65.286181,47.2125 60.13093,52.5 59.38023,52.5 c -0.750699,0 -5.022059,-3.15 -9.491911,-7 -4.469852,-3.85 -8.295124,-7 -8.500605,-7 -0.205481,0 -4.299556,4.5 -9.097944,10 -8.446466,9.681494 -11.752163,11.855593 -13.016517,8.560739 z"
     id="path3372"
     style="fill:#959595" />
</svg>
