<?xml version="1.0" encoding="UTF-8" standalone="no"?>
<!-- Created with Inkscape (http://www.inkscape.org/) -->

<svg
   xmlns:dc="http://purl.org/dc/elements/1.1/"
   xmlns:cc="http://creativecommons.org/ns#"
   xmlns:rdf="http://www.w3.org/1999/02/22-rdf-syntax-ns#"
   xmlns:svg="http://www.w3.org/2000/svg"
   xmlns="http://www.w3.org/2000/svg"
   version="1.1"
   width="98.737465"
   height="96.168144"
   id="svg3226">
  <metadata
     id="metadata3232">
    <rdf:RDF>
      <cc:Work
         rdf:about="">
        <dc:format>image/svg+xml</dc:format>
        <dc:type
           rdf:resource="http://purl.org/dc/dcmitype/StillImage" />
        <dc:title></dc:title>
      </cc:Work>
    </rdf:RDF>
  </metadata>
  <defs
     id="defs3230" />
  <path
     d="m 39.921442,94.117539 c -1.22952,-1.22952 -2,-3.33334 -2,-5.46105 0,-6.89512 7.638867,-9.990994 12.545455,-5.08441 2.999691,2.99969 3.131334,6.41534 0.381965,9.9106 -2.596988,3.30153 -7.94976,3.61252 -10.92742,0.63486 z m 28,0 c -2.785405,-2.78541 -2.632271,-8.05739 0.314451,-10.82569 4.83873,-4.545748 12.685549,-1.16479 12.685549,5.46582 0,6.28437 -8.550255,9.80962 -13,5.35987 z M 36.551197,72.385463 c -0.28402,-0.972359 -4.155919,-15.267926 -8.604221,-31.767926 -4.448302,-16.5 -8.514159,-31.0125 -9.035239,-32.2499998 -0.868876,-2.063475 -1.602245,-2.25 -8.846412,-2.25 -8.2319966,0 -11.0187712,-1.277697 -9.78714405,-4.487265 0.84085965,-2.191246 18.26527405,-2.166216 21.40187205,0.03074 1.959321,1.372362 3.801111,6.210029 7.88336,20.7065228 0.372464,1.322659 1.554179,1.75 4.839234,1.75 4.03879,0 5.07802,-0.635742 14.682612,-8.981991 13.458319,-11.6950808 13.15077,-11.6952278 26.767724,0.01281 10.199555,8.769714 10.545567,8.969179 15.55887,8.969179 9.656617,0 9.639967,-0.621659 0.696491,26.013356 l -7.886323,23.486644 -23.577212,0.267926 c -21.817126,0.247925 -23.615763,0.135947 -24.093612,-1.5 z M 85.48555,50.867537 c 3.151618,-9.4875 5.937137,-17.8125 6.190042,-18.5 0.36141,-0.982459 -5.968037,-1.25 -29.572366,-1.25 l -30.032195,0 4.459452,17.25 c 2.452698,9.4875 4.654917,17.8125 4.89382,18.5 0.326902,0.940738 5.122366,1.25 19.382701,1.25 l 18.948331,0 5.730215,-17.25 z M 71.421442,19.527019 C 61.980509,11.00436 62.876123,11.11025 55.441301,17.63766 c -3.585922,3.148266 -6.519859,5.894165 -6.519859,6.101998 0,0.207833 6.1875,0.360589 13.75,0.339458 l 13.75,-0.03842 -5,-4.513675 z"
     id="path3351"
     style="fill:#949494" />
</svg>
