<?xml version="1.0" encoding="UTF-8" standalone="no"?>
<!-- Created with Inkscape (http://www.inkscape.org/) -->

<svg
   xmlns:dc="http://purl.org/dc/elements/1.1/"
   xmlns:cc="http://creativecommons.org/ns#"
   xmlns:rdf="http://www.w3.org/1999/02/22-rdf-syntax-ns#"
   xmlns:svg="http://www.w3.org/2000/svg"
   xmlns="http://www.w3.org/2000/svg"
   version="1.1"
   width="99.934082"
   height="99.925484"
   id="svg3216">
  <metadata
     id="metadata3222">
    <rdf:RDF>
      <cc:Work
         rdf:about="">
        <dc:format>image/svg+xml</dc:format>
        <dc:type
           rdf:resource="http://purl.org/dc/dcmitype/StillImage" />
        <dc:title></dc:title>
      </cc:Work>
    </rdf:RDF>
  </metadata>
  <defs
     id="defs3220" />
  <path
     d="m 37.967038,98.375546 c -9.347179,-2.48102 -16.150819,-6.41332 -23.073004,-13.335504 -19.8587119,-19.858713 -19.8587119,-50.287295 0,-70.146008 19.858713,-19.8587119 50.287295,-19.8587119 70.146008,0 19.858718,19.858713 19.858718,50.287295 0,70.146008 C 72.388959,97.691126 54.491008,102.76151 37.967038,98.375546 z m 20.11351,-5.41005 c 8.22162,-1.52869 17.11413,-6.507893 23.409079,-13.10749 16.33721,-17.127858 16.33721,-42.654078 0,-59.781936 -17.566371,-18.4165063 -45.478807,-18.4165063 -63.045178,0 -16.3372094,17.127858 -16.3372094,42.654078 0,59.781936 10.682244,11.19922 24.796427,15.86672 39.636099,13.10749 z M 43.421583,84.512493 c -3.471719,-3.47172 -3.389093,-9.33818 0.181819,-12.909091 1.45,-1.45 3.219675,-2.636364 3.932612,-2.636364 1.544904,0 1.359206,0.615707 5.881198,-19.5 1.978231,-8.8 4.026571,-17.0125 4.551866,-18.25 1.057584,-2.491474 4.48117,-3.039116 5.320783,-0.851121 0.29524,0.769384 -1.454109,10.01589 -3.887442,20.547792 l -4.424242,19.148912 1.99443,2.14077 c 2.90455,3.117668 2.678287,9.1707 -0.460114,12.309102 -1.806061,1.80606 -3.535354,2.454545 -6.545455,2.454545 -3.010101,0 -4.739394,-0.648485 -6.545455,-2.454545 z m 9.045455,-6.545455 c 0,-1.832728 -0.601738,-2.585447 -2.254471,-2.820137 -2.457106,-0.348911 -3.852657,1.795603 -2.856989,4.390274 0.361403,0.941801 1.50471,1.442025 2.856989,1.25 1.652733,-0.23469 2.254471,-0.987409 2.254471,-2.820137 z M 13.302727,51.399445 c -1.137715,-2.964835 0.547758,-12.673893 3.108915,-17.908709 3.10365,-6.343631 11.821822,-14.83555 18.304635,-17.829592 6.884593,-3.179602 23.616929,-3.179602 30.501522,0 6.52377,3.012958 15.207166,11.498594 18.35916,17.941038 3.346709,6.840427 4.530476,17.990014 2.012607,18.956211 -2.489571,0.955338 -4.622528,-1.433138 -4.622528,-5.176287 0,-10.154854 -9.095586,-22.436394 -19.498797,-26.328734 -11.848289,-4.433013 -24.742393,-1.749906 -33.453584,6.961285 -5.199765,5.199765 -9.047619,13.403548 -9.047619,19.289894 0,4.872029 -4.20075,7.908873 -5.664311,4.094894 z"
     id="path3330"
     style="fill:#959595" />
</svg>
