<?xml version="1.0" encoding="UTF-8" standalone="no"?>
<!-- Created with Inkscape (http://www.inkscape.org/) -->

<svg
   xmlns:dc="http://purl.org/dc/elements/1.1/"
   xmlns:cc="http://creativecommons.org/ns#"
   xmlns:rdf="http://www.w3.org/1999/02/22-rdf-syntax-ns#"
   xmlns:svg="http://www.w3.org/2000/svg"
   xmlns="http://www.w3.org/2000/svg"
   version="1.1"
   width="78.955826"
   height="96.457222"
   id="svg3206">
  <metadata
     id="metadata3212">
    <rdf:RDF>
      <cc:Work
         rdf:about="">
        <dc:format>image/svg+xml</dc:format>
        <dc:type
           rdf:resource="http://purl.org/dc/dcmitype/StillImage" />
        <dc:title></dc:title>
      </cc:Work>
    </rdf:RDF>
  </metadata>
  <defs
     id="defs3210" />
  <path
     d="m 22.375069,94.957223 c -1.221967,-3.1844 0.417274,-4.5 5.606989,-4.5 4.846033,0 5.031385,-0.10334 5.031385,-2.805 0,-2.71071 -0.250844,-2.84715 -7.461842,-4.05881 -4.194538,-0.70481 -8.463754,-2.07555 -9.75,-3.13049 -2.139083,-1.754412 -2.179438,-1.987276 -0.619404,-3.574231 1.56954,-1.596626 2.059469,-1.591791 8.240456,0.08133 C 39.706692,81.377903 56.885681,75.139281 66.238799,61.42116 78.091483,44.036952 73.615088,19.298463 56.424148,7.1811694 51.762316,3.8952064 51.114653,2.4480374 53.441608,0.51683545 55.431153,-1.1343396 59.64921,1.1853034 65.71801,7.2680184 79.982816,21.565535 82.987047,42.761961 73.423546,61.634622 68.328335,71.689537 55.17167,81.355173 44.013443,83.240963 c -4.151811,0.70168 -4.524246,1.01028 -4.813358,3.98839 l -0.313359,3.22787 5.440914,0 c 6.159887,0 8.893489,1.8399 6.685803,4.5 -0.993308,1.19686 -3.954723,1.5 -14.65383,1.5 -10.996567,0 -13.512495,-0.26987 -13.984544,-1.5 z M 23.327731,70.665067 C 2.9806268,63.378829 -5.7861339,41.994487 4.0264091,23.58427 10.240369,11.925688 20.122182,6.0294254 33.513443,5.9900014 40.270874,5.9701114 42.397234,6.3997364 47.20353,8.7560704 61.009215,15.524442 68.931386,30.852777 65.989818,45.10501 64.404636,52.785396 62.119096,57.111191 56.84448,62.414208 48.216084,71.089063 34.168599,74.54715 23.327731,70.665067 z M 41.894547,64.806623 C 55.429842,60.43521 63.519187,45.588498 59.63869,32.240056 55.215259,17.02399 40.334064,8.6057234 25.488607,12.921415 17.821396,15.150334 10.104891,22.655101 7.5398749,30.377639 2.8961634,44.358546 10.415877,59.796319 24.186192,64.552088 c 6.65516,2.298451 11.178425,2.363467 17.708355,0.254535 z"
     id="path3309"
     style="fill:#959595" />
</svg>
