<?xml version="1.0" encoding="UTF-8" standalone="no"?>
<!-- Created with Inkscape (http://www.inkscape.org/) -->

<svg
   xmlns:dc="http://purl.org/dc/elements/1.1/"
   xmlns:cc="http://creativecommons.org/ns#"
   xmlns:rdf="http://www.w3.org/1999/02/22-rdf-syntax-ns#"
   xmlns:svg="http://www.w3.org/2000/svg"
   xmlns="http://www.w3.org/2000/svg"
   version="1.1"
   width="99.05204"
   height="99.956757"
   id="svg3196">
  <metadata
     id="metadata3202">
    <rdf:RDF>
      <cc:Work
         rdf:about="">
        <dc:format>image/svg+xml</dc:format>
        <dc:type
           rdf:resource="http://purl.org/dc/dcmitype/StillImage" />
        <dc:title></dc:title>
      </cc:Work>
    </rdf:RDF>
  </metadata>
  <defs
     id="defs3200" />
  <path
     d="M 24.32467,87.280343 C -3.1157486,72.32628 -3.7795411,71.647091 5.0184517,67.526332 c 4.3550686,-2.039805 5.3077223,-2.164795 8.0000003,-1.049617 3.846843,1.593414 3.846966,2.453107 5.83e-4,4.046331 -1.680599,0.696127 -2.693099,1.618352 -2.25,2.049388 0.443099,0.431037 9.252741,5.358854 19.576982,10.950706 L 49.117363,93.690139 69.158045,82.905517 89.198727,72.120891 86.386698,70.6785 c -3.890428,-1.995542 -3.902267,-2.020437 -1.739027,-3.657028 2.637515,-1.995402 4.812314,-1.875708 9.515559,0.523709 4.538234,2.315234 5.830798,4.499907 3.798184,6.419616 -1.334782,1.260637 -44.820598,24.852647 -47.886744,25.979605 -0.842697,0.309738 -12.126403,-5.239683 -25.75,-12.664059 z m -0.5,-22.054297 C -3.3906857,50.249657 -3.7891148,49.811614 5.6109403,45.201395 c 5.2200207,-2.560137 5.7055707,-2.627694 8.5000007,-1.182638 1.630051,0.842933 2.963729,1.735298 2.963729,1.983034 0,0.247737 -1.651208,1.297551 -3.669351,2.33292 l -3.6693503,1.88249 4.4193503,2.535239 c 14.378199,8.248311 34.485502,18.773929 35.400737,18.531309 0.58871,-0.156061 9.789441,-4.963983 20.446068,-10.68427 l 19.375685,-10.400522 -3.773766,-1.936059 -3.773766,-1.936058 3.15049,-1.915928 3.150491,-1.915927 5.018692,2.543163 c 5.484516,2.779215 6.95419,4.897842 4.811464,6.936009 C 95.885436,53.94883 50.146976,78.516104 48.766947,78.397739 48.111195,78.341496 36.88717,72.414234 23.82467,65.226046 z m 1.75,-22.319147 C 12.92467,35.999667 1.9506344,29.742323 1.187925,29.00169 0.42521574,28.261056 0.04227676,27.05769 0.33694954,26.327542 0.63162231,25.597395 11.90792,19.375001 25.395387,12.500001 L 49.918056,0 74.473673,12.500001 c 20.464953,10.417654 24.559397,12.856741 24.578307,14.641461 0.01883,1.777627 -4.112021,4.368608 -24.313393,15.25 -13.384846,7.209697 -24.747346,13.100777 -25.25,13.09129 -0.502654,-0.0095 -11.263917,-5.66862 -23.913917,-12.575853 z m 42.463045,-3.914482 c 9.721492,-5.229172 18.437532,-10.066672 19.368977,-10.75 1.461487,-1.072179 -0.970093,-2.612626 -17.746037,-11.242416 L 50.221081,7.0000002 29.992309,17.07467 9.7635367,27.149339 29.169104,37.788858 c 10.673061,5.851735 19.807777,10.655634 20.299368,10.675331 0.491592,0.0197 8.847751,-4.242601 18.569243,-9.471772 z"
     id="path3288"
     style="fill:#959595" />
</svg>
