<?xml version="1.0" encoding="UTF-8" standalone="no"?>
<!-- Created with Inkscape (http://www.inkscape.org/) -->

<svg
   xmlns:dc="http://purl.org/dc/elements/1.1/"
   xmlns:cc="http://creativecommons.org/ns#"
   xmlns:rdf="http://www.w3.org/1999/02/22-rdf-syntax-ns#"
   xmlns:svg="http://www.w3.org/2000/svg"
   xmlns="http://www.w3.org/2000/svg"
   version="1.1"
   width="100.10585"
   height="100.06174"
   id="svg3186">
  <metadata
     id="metadata3192">
    <rdf:RDF>
      <cc:Work
         rdf:about="">
        <dc:format>image/svg+xml</dc:format>
        <dc:type
           rdf:resource="http://purl.org/dc/dcmitype/StillImage" />
        <dc:title></dc:title>
      </cc:Work>
    </rdf:RDF>
  </metadata>
  <defs
     id="defs3190" />
  <path
     d="M 12.69159,98.956605 C 8.5856865,97.728755 2.2637439,91.227341 1.099058,87.034976 -1.84515,76.437104 0.12278015,73.046841 19.571814,55.210936 L 35.891437,40.244883 27.22886,31.622442 C 19.057824,23.489264 18.323816,23 14.293224,23 10.589564,23 9.3596098,22.382127 5.063007,18.363158 2.3365696,15.812895 0.10584795,12.985023 0.10584795,12.078998 0.10584795,9.9842243 10.144301,0 12.250451,0 c 0.869942,0 3.668292,2.2307214 6.218555,4.9571594 4.033068,4.311675 4.636842,5.5188546 4.636842,9.2708486 0,4.094895 0.446821,4.758441 8.809361,13.082236 8.288765,8.250362 8.901798,8.6628 10.373555,6.979151 0.935654,-1.070361 1.768364,-4.485758 2.072292,-8.499592 1.107458,-14.625687 13.354229,-25.8287675 28.176293,-25.7750612 4.312765,0.015627 8.658071,1.7191216 9.292032,3.6427646 0.209809,0.636628 -1.667155,3.464149 -4.171031,6.2833789 -5.572599,6.2744487 -5.977583,9.7878797 -1.629425,14.1360377 4.348158,4.348158 7.861589,3.943174 14.136037,-1.629425 2.819231,-2.503876 5.646752,-4.38084 6.28338,-4.171031 1.923643,0.633961 3.627138,4.979267 3.642768,9.292032 0.0444,12.259993 -8.223023,23.59005 -19.808672,27.146647 L 74.16614,56.592745 85.705812,68.046372 C 97.757902,80.008596 100.10585,83.180538 100.10585,87.5 c 0,8.439625 -10.072008,15.06609 -17.315743,11.392175 -1.201343,-0.6093 -8.278434,-7.14762 -15.72687,-14.529606 L 53.520626,70.940779 42.063237,83.617052 C 27.815037,99.381035 22.825211,101.98701 12.69159,98.956605 z m 10.696377,-6.3031 c 1.986157,-0.83109 10.578717,-9.388064 22.448078,-22.35511 l 19.230196,-21.008616 4.903223,0.471138 c 6.517428,0.626242 11.545732,-1.175283 16.800982,-6.019403 3.074655,-2.834118 4.768823,-5.461907 5.834137,-9.049209 2.044385,-6.884191 2.00004,-6.970509 -2.138282,-4.162168 C 76.960502,39.69542 60.456445,23.077537 69.633797,9.5539534 l 2.527948,-3.725141 -3.277948,0.712996 c -5.510855,1.198682 -7.5139,2.224844 -11.667244,5.9771416 -5.092398,4.600676 -7.528269,10.783577 -6.885171,17.47643 l 0.483462,5.031483 -21.283669,19.506941 C 7.1814405,75.017816 5.194196,77.572791 6.6073212,84.006707 c 0.7830978,3.565421 5.6058758,8.680998 8.7570108,9.288668 4.037531,0.77861 4.768743,0.72011 8.023635,-0.64187 z M 14.305848,85.8 C 12.484318,83.97847 12.85866,78.533677 14.934589,76.654988 17.393518,74.429687 20.674048,74.5682 23.105848,77 c 4.071326,4.071326 1.327097,10 -4.628741,10 -1.634192,0 -3.511259,-0.54 -4.171259,-1.2 z m 77.345455,5.745455 c 1.35,-1.35 2.454545,-3.225185 2.454545,-4.167078 0,-0.941892 -5.943218,-7.714554 -13.207152,-15.050358 L 67.691544,58.990192 63.363877,63.237476 59.03621,67.48476 72.393797,80.74238 c 7.346672,7.291691 14.132795,13.257615 15.080273,13.257615 0.947478,0 2.827233,-1.10454 4.177233,-2.45454 z M 16.897436,14.463384 c 0.168405,-1.176235 -0.792556,-3.055116 -2.274702,-4.44752 l -2.56629,-2.4109046 -2.1728182,2.172818 -2.1728184,2.1728186 2.4109046,2.56629 c 2.806552,2.987438 6.344343,2.959503 6.775724,-0.0535 z"
     id="path3267"
     style="fill:#afafaf" />
</svg>
