<?xml version="1.0" encoding="UTF-8" standalone="no"?>
<!-- Created with Inkscape (http://www.inkscape.org/) -->

<svg
   xmlns:dc="http://purl.org/dc/elements/1.1/"
   xmlns:cc="http://creativecommons.org/ns#"
   xmlns:rdf="http://www.w3.org/1999/02/22-rdf-syntax-ns#"
   xmlns:svg="http://www.w3.org/2000/svg"
   xmlns="http://www.w3.org/2000/svg"
   version="1.1"
   width="87.241386"
   height="95.816566"
   id="svg3045">
  <metadata
     id="metadata3051">
    <rdf:RDF>
      <cc:Work
         rdf:about="">
        <dc:format>image/svg+xml</dc:format>
        <dc:type
           rdf:resource="http://purl.org/dc/dcmitype/StillImage" />
        <dc:title></dc:title>
      </cc:Work>
    </rdf:RDF>
  </metadata>
  <defs
     id="defs3049" />
  <path
     d="m 41.105877,91.566563 -1.548815,-4.25 L 19.778531,87.04502 0,86.773478 0.620691,83.67002 c 0.34138,-1.706901 0.620692,-4.156549 0.620692,-5.443661 0,-2.938448 4.9751185,-8.695575 9.279575,-10.738173 1.797071,-0.852766 6.593526,-2.244001 10.658788,-3.091632 9.417176,-1.963537 12.061636,-4.239987 12.061636,-10.383104 0,-4.462804 -0.938899,-6.009043 -8.924163,-14.696887 -2.748403,-2.990218 -3.551812,-9.124625 -1.587636,-12.122337 1.007316,-1.537358 1.718102,-5.155654 1.899067,-9.667306 0.493802,-12.3109967 2.256797,-14.1141597 16.424643,-16.7988658 5.900244,-1.11805431 6.500895,-1.05634081 9.209508,0.9462231 1.593678,1.178257 4.153318,2.149176 5.688088,2.157598 5.635938,0.03093 7.290493,3.42215 7.290493,14.9427987 0,6.035653 0.343436,7.9597 1.5,8.403515 2.349636,0.90164 2.023569,9.158244 -0.429528,10.87646 -3.302849,2.313406 -9.279516,12.078217 -9.824591,16.051636 -0.774984,5.649381 2.125748,8.217133 11.64348,10.306907 15.226505,3.343228 20.966714,8.829346 21.086782,20.153371 l 0.02386,2.25 -19.364142,0 -19.364142,0 -1.718566,4.5 c -0.945211,2.475001 -2.263353,4.500001 -2.929203,4.500001 -0.665851,0 -1.907605,-1.9125 -2.759452,-4.250001 z m 9.146306,-9.275197 c 1.92563,-4.492313 1.924971,-4.588601 -0.09083,-13.25 -3.06808,-13.182815 -2.863994,-12.68362 -4.352946,-10.647358 -0.831629,1.137319 -2.119291,1.550138 -3.82069,1.224895 -2.517782,-0.481305 -2.598059,-0.314229 -4.245638,8.836238 -1.582313,8.787991 -1.579666,9.587792 0.04584,13.844121 1.684391,4.410503 1.829195,4.517301 6.124857,4.517301 4.265631,0 4.458779,-0.137873 6.339406,-4.525197 z"
     id="path3246"
     style="fill:#4c4c4c" />
</svg>
